HIERARCHY
ROOT Hips
{
	OFFSET -0.001795 -0.223333 0.028219
	CHANNELS 6 Xposition Yposition Zposition Zrotation Yrotation Xrotation 
	JOINT LeftUpLeg
	{
		OFFSET 0.069520 -0.091406 -0.006815
		CHANNELS 3 Zrotation Yrotation Xrotation
		JOINT LeftLeg
		{
			OFFSET 0.034277 -0.375199 -0.004496
			CHANNELS 3 Zrotation Yrotation Xrotation
			JOINT LeftFoot
			{
				OFFSET -0.013596 -0.397961 -0.043693
				CHANNELS 3 Zrotation Yrotation Xrotation
				JOINT LeftToe
				{
					OFFSET 0.026358 -0.055791 0.119288
					CHANNELS 3 Zrotation Yrotation Xrotation
					End Site
					{
						OFFSET 0.000000 0.000000 0.000000
					}
				}
			}
		}
	}
	JOINT RightUpLeg
	{
		OFFSET -0.067670 -0.090522 -0.004320
		CHANNELS 3 Zrotation Yrotation Xrotation
		JOINT RightLeg
		{
			OFFSET -0.038290 -0.382569 -0.008850
			CHANNELS 3 Zrotation Yrotation Xrotation
			JOINT RightFoot
			{
				OFFSET 0.015774 -0.398415 -0.042312
				CHANNELS 3 Zrotation Yrotation Xrotation
				JOINT RightToe
				{
					OFFSET -0.025372 -0.048144 0.123348
					CHANNELS 3 Zrotation Yrotation Xrotation
					End Site
					{
						OFFSET 0.000000 0.000000 0.000000
					}
				}
			}
		}
	}
	JOINT Spine
	{
		OFFSET -0.002533 0.108963 -0.026696
		CHANNELS 3 Zrotation Yrotation Xrotation
		JOINT Spine1
		{
			OFFSET 0.005487 0.135180 0.001092
			CHANNELS 3 Zrotation Yrotation Xrotation
			JOINT Spine2
			{
				OFFSET 0.001457 0.052922 0.025425
				CHANNELS 3 Zrotation Yrotation Xrotation
				JOINT Neck
				{
					OFFSET -0.002778 0.213870 -0.042857
					CHANNELS 3 Zrotation Yrotation Xrotation
					JOINT Head
					{
						OFFSET 0.005152 0.064970 0.051349
						CHANNELS 3 Zrotation Yrotation Xrotation
						End Site
						{
							OFFSET 0.000000 0.000000 0.000000
						}
					}
				}
				JOINT LeftShoulder
				{
					OFFSET 0.078845 0.121749 -0.034090
					CHANNELS 3 Zrotation Yrotation Xrotation
					JOINT LeftArm
					{
						OFFSET 0.090977 0.030469 -0.008868
						CHANNELS 3 Zrotation Yrotation Xrotation
						JOINT LeftForeArm
						{
							OFFSET 0.259612 -0.012772 -0.027456
							CHANNELS 3 Zrotation Yrotation Xrotation
							JOINT LeftHand
							{
								OFFSET 0.249234 0.008986 -0.001171
								CHANNELS 3 Zrotation Yrotation Xrotation
								End Site
								{
									OFFSET 0.000000 0.000000 0.000000
								}
							}
						}
					}
				}
				JOINT RightShoulder
				{
					OFFSET -0.081759 0.118833 -0.038615
					CHANNELS 3 Zrotation Yrotation Xrotation
					JOINT RightArm
					{
						OFFSET -0.096012 0.032551 -0.009143
						CHANNELS 3 Zrotation Yrotation Xrotation
						JOINT RightForeArm
						{
							OFFSET -0.253742 -0.013329 -0.021401
							CHANNELS 3 Zrotation Yrotation Xrotation
							JOINT RightHand
							{
								OFFSET -0.255298 0.007772 -0.005559
								CHANNELS 3 Zrotation Yrotation Xrotation
								End Site
								{
									OFFSET 0.000000 0.000000 0.000000
								}
							}
						}
					}
				}
			}
		}
	}
}
MOTION
Frames: 5
Frame Time: 0.050000
-0.004552 0.938764 1.936253 -3.920284 15.548612 4.635681 5.022588 -0.170738 4.446332 3.608133 -1.744257 15.186007 -3.031406 -8.197006 -2.148685 0.000000 0.000000 0.000000 -3.323191 0.826176 -34.010521 -1.568329 0.572422 16.568057 0.607727 -1.365532 10.168297 0.000000 0.000000 0.000000 2.496503 -2.810863 26.254799 -3.078240 1.618656 -21.626836 -3.273860 -4.515051 28.840422 7.698428 -1.910117 -28.961174 0.000000 0.000000 0.000000 -12.164244 -5.240957 1.207253 -42.706846 -15.659421 -1.839736 20.558568 -64.665183 -10.055562 0.000000 0.000000 0.000000 19.519530 -5.760112 -3.288305 53.029201 -14.597699 -13.451890 13.072441 36.053960 6.243451 0.000000 0.000000 0.000000 
-0.001736 0.926288 1.999031 -3.435835 15.304487 4.643205 5.371228 -0.191409 5.002260 3.336173 -2.451452 21.244549 -4.138214 -8.957594 -0.242913 0.000000 0.000000 0.000000 -2.708498 1.019201 -34.846809 -3.461491 1.161385 22.235061 2.266689 2.085696 9.256840 0.000000 0.000000 0.000000 4.211071 -2.984127 24.617220 -3.190293 1.640773 -21.875602 -4.067739 -4.433284 29.026907 6.630552 -1.417873 -28.212741 0.000000 0.000000 0.000000 -12.455224 -4.475813 0.833530 -42.936444 -14.061549 -2.409267 16.065911 -69.245819 -7.861433 0.000000 0.000000 0.000000 19.713331 -6.512466 -3.716898 51.435860 -16.829875 -13.922902 13.409271 34.927103 6.077718 0.000000 0.000000 0.000000 
0.001958 0.916932 2.059250 -3.298511 15.311001 4.037693 5.179671 -0.249811 1.079326 3.601646 -4.746229 34.541346 -6.975947 -11.656730 3.745657 0.000000 0.000000 0.000000 -2.155852 1.213289 -32.982481 -3.038120 0.947312 28.828328 2.162963 3.116539 5.554834 0.000000 0.000000 0.000000 6.434824 -3.620184 24.962950 -3.217703 1.638977 -22.279293 -3.629210 -2.519517 30.215880 7.552778 -1.334612 -30.484725 0.000000 0.000000 0.000000 -13.399201 -4.500691 0.444559 -44.630121 -12.981541 -2.878951 5.042928 -70.468213 -0.730613 0.000000 0.000000 0.000000 20.061479 -7.704169 -3.946505 51.641456 -15.895791 -13.745877 11.663378 34.712381 5.713560 0.000000 0.000000 0.000000 
0.007609 0.911970 2.112010 -2.122313 14.417592 4.758441 4.113353 -0.578148 -6.861550 2.107605 -6.731299 48.791650 -9.747493 -12.836744 9.395943 0.000000 0.000000 0.000000 -1.627267 1.457323 -32.393350 -4.126628 1.407656 33.666282 2.334927 5.436955 0.856401 0.000000 0.000000 0.000000 6.710507 -3.811389 25.933150 -3.391344 1.650577 -22.761744 -3.137581 -0.609327 30.242809 7.776434 -1.272659 -30.026660 0.000000 0.000000 0.000000 -13.888702 -5.158106 0.440793 -46.894562 -12.113381 -3.248518 -3.346475 -64.779550 4.401469 0.000000 0.000000 0.000000 20.601206 -6.541507 -2.939757 51.531403 -13.413088 -12.829607 7.407296 35.710083 4.679271 0.000000 0.000000 0.000000 
0.015435 0.915622 2.159894 -0.765171 11.479004 6.426070 3.969604 -1.064027 -13.623379 -1.178622 -4.939261 55.058614 -7.228935 -9.007140 8.718436 0.000000 0.000000 0.000000 -1.655017 1.711081 -30.228056 -4.818620 2.027745 33.048829 1.777330 6.026087 -2.882311 0.000000 0.000000 0.000000 5.499062 -3.304054 25.976850 -2.257088 1.322642 -22.589406 -2.377918 2.868006 29.301004 7.207816 -0.745361 -28.855782 0.000000 0.000000 0.000000 -15.595571 -4.956127 -0.319490 -47.838596 -9.673856 -3.939878 -7.553097 -55.402893 5.457379 0.000000 0.000000 0.000000 19.861601 -3.867077 -0.885358 50.908505 -7.902749 -10.543148 2.005061 36.403893 3.208625 0.000000 0.000000 0.000000 
